<?xml version="1.0" encoding="UTF-8"?>
<svg id="Capa_1" xmlns="http://www.w3.org/2000/svg" version="1.1" viewBox="0 0 455 455">
  <!-- Generator: Adobe Illustrator 29.0.0, SVG Export Plug-In . SVG Version: 2.1.0 Build 186)  -->
  <defs>
    <style>
      .st0 {
        fill: #fff;
      }

      .st1 {
        fill: #05090c;
      }
    </style>
  </defs>
  <rect class="st1" width="455" height="455"/>
  <g>
    <path class="st0" d="M217.9,145.1c0,.3,0,.6-.3,1l2.5-1.9s0,0,0,0c-.9-.7-2.4,0-2.2,1Z"/>
    <path class="st0" d="M237.5,191.3c0,.8,1.1,2,1.5,1.7s.2-.8,0-1.3c-.3-1.1-1.5-1.4-1.5-.4Z"/>
    <path class="st0" d="M198.4,141.2c-.2.2-.1.5.2.7.3.2.8.3.9.2s0-.4-.2-.7-.6-.4-.9-.2Z"/>
    <path class="st0" d="M219.8,116.1c.2-.2.2-.6,0-.8s-.7-.3-1.1,0-.4.6,0,.8c.3.2.9.2,1.1,0Z"/>
    <path class="st0" d="M269.5,159.9c-.5-.6-.2-.9,1.2-.7l-7.1-9.1c-.5-.1-.6.5-.1,1.6.9,2.1-.2,2.2-1.3.1-.2-.3-.3-.6-.5-.8l-6.8,5.2c.1,1.7.5,2.6,1.2,3.4,1.5,1.8,2.8,6.2,1.9,6.3-.4,0-1-.4-1.3-.7s-1.8-1.5-3.2-2.3c-1.1-.6-2.5-1.7-3.7-2.7l-10.3,8c-.8,3-3.1,8-3.7,8-.3,0-1.4-.7-2.3-1.7-.3-.3-.6-.6-1-.8l-1.5,1.2c.3.1.5.2.8.3,2.4.8,4.6,1.9,4.9,2.2.7.9,1.3.4,2.5-1.9.5-.9,1.2-1.7,1.5-1.6,1.3.3,2.9,6.6,3,11.9.3,6.4.8,8,3.4,9.4,1.4.9,2.8,2.4,4.3,4.8,0,.2.2,1.8.1,3.4,0,2.7.3,3.3,1.7,4.8,1.4,1.4,1.6,1.8.9,2.7-.4.6-.4,1,0,1.4l36.1-28-13.5-17.4-4.9-6.3c-.3,0-.6-.2-.8-.2-.7-.1-1.4-.4-1.6-.7ZM259.9,201.2c1.7,3.9,1.9,5,1.3,5.5s-1.2.2-3.6-2.6c-2.6-3.1-2.8-3.5-2.6-5.9,0-1.4,0-2.8-.4-3.2s-.2-.7.2-.9c1.2-.3,2.9,2.1,5.1,7.1ZM261.3,164.9c.2.6.2,1.2,0,1.4-.5.4-2.8-2.4-2.8-3.4,0-.9,2.4.7,2.9,1.9Z"/>
    <path class="st0" d="M199.7,135.8c.6-.4.8-1.1.6-1.4s-1,0-1.8.5-1.1,1.2-.6,1.4c.3.2,1.2,0,1.8-.5Z"/>
    <path class="st0" d="M221.7,111.6c0-.3-.5-.6-1.1-.7-.8-.2-.8,0,0,.5.6.4,1,.5,1,.2Z"/>
    <polygon class="st0" points="208.1 153.5 207.3 153.1 207.4 154.1 208.1 153.5"/>
    <path class="st0" d="M323.6,209.8l-41.7,32.3-41.7,32.3-12.4-16-12.4-16,29.1-22.6c-.1-.1-.2-.3-.3-.4-.8-1-2.4-2.2-3.6-2.7-2.3-.9-3.6-2.3-7.5-8.4-1.6-2.6-5.5-5.7-6.9-5.7-.7,0-1.2-.5-2.1-2.3-1.7-3.3-1.8-3.4-2.7-2.2-.6.8-1.4,1-2.8.5-2.3-.7-2.8-.5-2.7,1.2,0,.7-.6,1.8-1.5,2.5s-1.6,1.7-1.6,2.3c0,1.3-2.4.9-4.9-.8-1-.6-2.5-1.1-3.5-1-1.5.2-1.4.6-4.6-4.1l-11.2,8.7-9.4-12.2-9.4-12.2,19.4-15.1c-.4-.3-1-.5-1.6-.5h-1.7c0-.1,1.3-1.8,1.3-1.8,1.7-2.1,1.5-3-.3-1.7-3.4,2.5-3.2,2.5-3.2.2,0-1.7-.1-2-.9-1.8-.6.1-.7.5-.4,1,.7.9.2,3.9-.7,3.9-.3,0-1-.6-1.6-1.3s-.8-1.6-.2-2.5c.6-.8.5-1.4,0-1.8-1.1-.8-.8-2.3.9-3.5s1.3-.7,1.9.4c.5,1,1.5,1.7,3.3,2.3l2.6.8.3-1.9c.2-1.1.5-2.1.8-2.4s.1-.5-.2-.7c-.8-.4-1.1-2.6-.5-3.1s.8.2,1.2.8c.8,1,1.1.9,3.4-.9s2.5-2.2,2-3.3c-.4-.8-.2-1.6.3-2s.6-.9,0-1.3c-.7-.5-.5-.9.7-1.9s1.3-1.4.9-1.6c-.4-.2-1.3.3-2.1,1.3-1.1,1.3-1.6,1.5-2.4.8-.7-.5-1-1.4-.9-2.8.2-2.3,0-2.9-.9-2.2s-.5,1.3-.3,2.4c.2,1.1,0,2.1-.4,2.4s-.3.9.8,1.8c1.1,1.1,1.5,1.9,1.5,3.6,0,2.7-1.4,4.2-2.5,2.7s-1.8-1.5-2.2,0c-.7,2.8-5.2-.4-4.9-3.5,0-.8.5-2.4,1-3.7.5-1.2.7-2.4.5-2.7s0-2,.4-3.7c1-3.8,3.1-5.8,7.1-6.4,1.5-.2,3.4-.9,4.2-1.5s2.2-1,3.2-.7c2.1.5,2.4.3,1.6-.7s-.5-2.3.7-2c1.1.3,6.8-4.8,7.6-6.8.4-.9,1.1-1.4,2.4-1.8,2.6-.7,3.1-1.2,1.3-1.3-1.5-.2-1.5-.3-1.4-2.6,0-1.9.3-2.5,1.2-2.4,1.5,0,4.2,3.2,4.2,5,0,.8.3,1.4.5,1.2.9-.7.4-2.5-1.1-4.5s-2-4.4-.5-2.4q.8.9.6-.5c-.1-1.2.1-1.5,1.2-1.6,1.2,0,1.3-.2.5-.7-.7-.4-.6-.8.4-1.6s1.6-1.8,1.9-2.8c.4-1,1.2-2.2,1.8-2.7s1.1-1.2,1-1.6.7-1.2,1.8-1.7c1.2-.6,1.8-1.3,1.7-1.9-.1-.5.4-1.1,1.3-1.4.5-.2,1.4-.7,2.1-1.2l-7.8-10.1-60.2,46.7-20.5,15.9c5.3-3.1,6.1-3.3,6.7-2.5s1.5,1.2,2.6,1.6q1.9.7,2.4-1.3c.6-2,1.6-2.6,2.4-1.5s.3,1.8.2,3.4c-.2,1.8,0,3.2.7,4,2.5,2.8,2.8,3.7,1.6,4.1-1,.3-1,.5,0,1.5,1.6,1.7,1.4,3.8-.6,6-.8,1-1.7,2.6-1.8,3.5,0,1-.3,1.7-.6,1.6-.8-.2-1.5,2.4-.8,3.3s.5,1,.2,1.2-.1.7.2,1.2.5,1.2.3,1.6c-.5,1-4.8,1.5-6,.7-.5-.4-1.4-.8-2.1-1-.6-.2-1.4-.8-1.7-1.4-.3-.7-.7-1.1-.9-.9s-1.4-.6-2.7-1.7c-1.7-1.5-2.7-1.9-3.9-1.7-2.2.5-4.5,1.9-4.8,2.9,0,.4-.6.6-1,.4-.4-.2-1.3-.2-2.1,0-1.2.3-1.2.2-.3-1.1.5-.7.7-1.5.5-1.8s0-.7.3-1,.4-1.1,0-1.8-.3-1.5.2-1.9.6-1.1.4-1.6c-.3-.7.3-1.5,2.1-2.9s2.4-2.1,1.8-3.1c-.7-1.4-.1-2.2.7-1.2.4.5.5.4.2-.3-.2-.5.1-2,.7-3.3.2-.6.5-1.1.8-1.6l-35.6,27.6,7.8,10.1s0,0,0,0c.5,0,2-.9,3.4-2.1,1.8-1.6,2.6-1.9,2.8-1.3.2.5-.2,1.2-1,1.6-2.1,1.2-.8,4.9,1.6,4.2,1.5-.4,2,.8,1,2.4-.6.9-.2.8,1.3-.3,1.7-1.2,1.9-1.7,1.3-2.2-.6-.4-.6-.8-.2-1.2s1-.2,1.4.3.8.6,1,.2c.4-.6.1-1-2.1-3.3-1-1-1-1.4-.3-2.2.4-.5,1-.7,1.3-.4s.1.9-.3,1.2c-.6.5-.4.6,1.4,1.1,1.2.3,2.4.3,2.8,0s1-.4,1.4-.1c.4.3.6,0,.5-.8,0-1.2-.2-1.2-1.2-.5s-1.7.7-2.3.4c-1.1-.4-1.2-.6-1-1.7.3-1.5,0-2.1-.9-1.5s-5.9,1.1-6.4.5,1.4-1.3,3.7-1.3c.9,0,2.6-.8,3.7-1.7,2.5-1.9,4-2.4,4.2-1.4,0,.4.6.4,1.1,0s2-.8,3.4-.9c1.3-.1,3.1-.5,3.9-.8.8-.3,1.6-.3,1.9,0s1.6.5,3,.2c1.3-.3,2.6-.2,2.8,0,.7.9-.4,2.3-1.7,2.4-.7,0-1.1.3-.9.6s.8.4,1.3.3c.5-.1,1.2.1,1.5.6.8,1.1-.9,2.4-3.8,2.9-1.2.2-2.7.8-3.4,1.3s-1.5.7-1.9.2-.3-1.1.2-1.5.8-1.3.7-2.1c-.1-1.1-.1-1.2-.3-.2,0,1.8-1,2.2-1.7.7-.5-1.1-.8-1.1-2-.2s-1.1,1.2-.4,1.6c.5.4.8,1.3.6,2-.2,1.3-.1,1.3,1.2,1.2.9,0,1.5.2,1.6.7.1.5-.1.7-.8.6-.6,0-1.3.3-1.7.9-.5.6-.9.8-1.3.3s-.6-.4-.6.3c0,.5-.4,1.1-.7,1.2-.4,0-.7,1.1-.7,2.3,0,3.3,1.9,4.5,5,3.4,1.4-.5,2.9-1.2,3.3-1.5s1.6-.2,2.7.5c2.4,1.5,3,1,1-.9-1.3-1.2-1.4-1.5-.7-1.7,1.3-.3.8-1.7-.8-2.1-2-.5-3.2-3.9-1.8-4.9s4.9-1.4,5.1-.5c.3,1.4,2.1.4,2.2-1.2.1-1.5.3-1.5,2.6-.4,1.4.6,2.7,1,3,.8,1-.7,4.5.7,5,2.1.5,1,.8,1.2,1.3.8s1.3-.2,1.9.2c1.4.8,1,1.7-1.3,3-1.4.7-1.4.6-1.9-1.3s-.6-2-1.3-1c-.4.6-.7,1.6-.7,2.2.1,1-.2,1.2-1.3,1.2s-1.6.3-2.1,1.6c-.8,2,0,2.3,1,.3.6-1.3.9-1.4,1.8-.5.6.5,1.1.6,1.2.3,0-.3.4-.3.6,0s.7.3,1-.1c1.2-1.4,2.1.3,1,1.7-.6.8-1,1.7-1,2.1.2,1-.6,1.4-1.3.5s-.7-.6-1.2.7c-.5,1-.3,1.7.4,2.3.7.6.8,1,0,1.5-1,.7-.7,4.7.4,5.5.4.3.6,2,.4,3.8-.2,2.7,0,3.5.9,4,1.6.9,3.6,3.5,2.9,3.7-.3,0-1.7-.3-3.1-.9-1.6-.7-2.7-.8-3.2-.3-.4.4-1.4,1.4-2.2,2.1-2.6,2.4-2.6,3.8-.1,7.1s2.6,2.9,3.7,3.1c1.8.3,3-1.3,2.3-3-.3-.7-.2-1.5.4-1.9.9-.7,1-.5,2.6,2.1,1.5,2.5,1.7,2.7,2.3,1.8.9-1.4,2.1-.9,4.3,1.6,1.7,2,1.8,2,3.6.8,1.4-1,1.8-1.8,1.9-3.4,0-2.3.5-3.1,1.3-2.1s.5.2.6-.1c0-.4.6-.7,1.1-.7s1.8-.6,2.9-1.6c1.8-1.4,2.1-1.5,2.6-.5.4.8.8,1,1.1.7s1.2-.3,1.8,0c.6.2,1.6,0,2.2-.4.9-.7,4.6.5,7.2,2.3.6.4,1.5.5,2.2.2,1.7-.6,5-1.4,7.7-1.5,2-.2,2.3,0,3.4,1.9.7,1.2,1.2,3,1.2,4.2,0,1.3.7,3,1.8,4.6,2.2,3.3,3.1,6.7,2.1,7.5s-1.6,4.6-.7,5c.3.2.8,1.5.9,2.8.2,1.4.5,3.2.8,4,.2.8.1,2-.1,2.6-.3.7-.2,2.1.2,3.1.5,1.4.4,2.1-.4,2.7s-1,1.4-.8,1.9c.2.6,0,1.3-.4,1.6-.6.5-.5.6.4.6.9,0,1,.3,1,2.1,0,1.3.4,2.3,1,2.8.6.5,1,1.5,1,2.9,0,2.4,1.2,3.4,3.9,3.1,1.5-.2,1.5,0,.2,1.4-2.4,2.9-6.4,1.8-9.7-2.8-.9-1.1-1.6-2.6-1.7-3.1,0-.5-1.2-2.5-2.6-4.6s-3.1-5-3.8-6.6c-.8-1.6-2.8-4.9-4.6-7.4l-3.3-4.6h-2.7c-2.1,0-3.4-.6-5.8-2.3-1.7-1.3-3.6-2.5-4.3-2.7-1.9-.6-5-5.4-4.8-7.5,0-2.1-.9-3.7-2.9-4.8-1-.6-1.3-.5-1.4.3-.2,1.4-4,1.3-6.1-.2-.8-.6-1.8-.7-2.2-.4s-1.7.5-2.7.5c-1-.2-2.2,0-2.5.3-1.9,1.8-3.1,2.1-4.2,1.3-.6-.5-1.8-.7-2.6-.5-.9.1-1.8-.2-2.3-.8s-1.5-1.3-2.4-1.5c-.2,0-.5-.1-.8-.2l21.4,27.6,62.7,81,61.7-47.8,61.7-47.8-13.7-17.7-13.7-17.7ZM205.9,115.5c3.1-3.3,3.1-3.3,3.5-2.7s-.2,2.5-2,4c-2.2,1.8-2.6,3.6-1.4,5.2s.9,1.5.6,1.7c-.6.5-3.6.8-3.9.4-.8-1,1.3-6.5,3.2-8.5ZM163.6,161.5c0-.3.4-.7.9-.8.4,0,1.7-.9,2.8-1.7,2.3-1.8,3.1-1.2,1.8,1.5-.8,1.7-1.1,2-2.9,2.2-2,.1-2.6-.1-2.6-1.3ZM113,185.7c-2.2.9-2.8.9-3,0-.3-1.5,3-2.9,4-1.6s.2.9-1.1,1.5ZM117.8,184.1c.1-.1.5,0,.9.2.3.2.5.5.2.7s-.7,0-.9-.2-.3-.6-.2-.7ZM118.6,189.9c-.3-.2-1.2-.2-1.9,0l-1.2.2.5-1.1c.9-2,2-2.5,2.8-1.4s.8,2.7-.3,2.3ZM165.4,225.4c-.2.2-.6,0-.9-.2s-.2-.7,0-.9.6-.1.9.2.2.7,0,.9ZM162.5,222.1c-.8,0-2,.2-2.6.7s-1.4.7-1.6.4c-.7-.9,1.5-2.2,3.8-2.3,1.2,0,2.2,0,2.4.3.5.7-.2,1-1.9.8ZM166.8,221.8c-.9,0-1-.2-.8-1.1.1-.5.5-1.2.7-1.4.5-.4,2.3,0,2.8.6s-1.4,2-2.7,1.9Z"/>
    <path class="st0" d="M113.7,189.1c-.3-.3-.6-.4-.9-.2s-.3.6,0,.9.6.4.9.2.2-.6,0-.9Z"/>
    <path class="st0" d="M148,204.2c.4-1.3.6-2.6.5-2.7-.5-.7-1.3,1-1.3,2.9v2.2s.8-2.5.8-2.5Z"/>
    <path class="st0" d="M141.5,204.6c0,.3.6,1.3,1.3,2.2.9,1.1,1.2,1.3.7.4-1.4-2.9-.4-5.2,1.4-3.1.9,1.2,1,1.2.5-.1-.2-.8-.6-1.6-.8-1.8-.3-.5-3.2,1.6-3.2,2.4Z"/>
    <path class="st0" d="M125.8,181.5c.4-.3.3-.7,0-.8-.4-.2-1,0-1.5.3s-.5.8.4,1.6c.6.6,1,.7.9.2-.2-.4,0-1,.3-1.3Z"/>
    <path class="st0" d="M138.4,203.4c-.2,1.4-.1,1.4,1.4.2s1.5-1.4.5-1.7c-1.4-.5-1.6-.3-1.9,1.5Z"/>
  </g>
</svg>