<?xml version="1.0" encoding="UTF-8"?>
<svg id="Capa_1" xmlns="http://www.w3.org/2000/svg" version="1.1" viewBox="0 0 763.9 455">
  <!-- Generator: Adobe Illustrator 29.0.0, SVG Export Plug-In . SVG Version: 2.1.0 Build 186)  -->
  <defs>
    <style>
      .st0 {
        stroke: #fff;
        stroke-miterlimit: 10;
        stroke-width: 5px;
      }

      .st0, .st1 {
        fill: #fff;
      }

      .st2 {
        fill: #05090c;
      }
    </style>
  </defs>
  <rect class="st2" x="-.9" y="0" width="764.7" height="455"/>
  <g>
    <path class="st1" d="M150.7,178.3c0,.2,0,.5-.3.7l2.1-1.2s0,0,0,0c-.6-.6-1.8-.2-1.8.6Z"/>
    <path class="st1" d="M161.2,214.9c0,.6.6,1.6,1,1.4s.2-.5.1-1c-.1-.8-1-1.2-1.1-.4Z"/>
    <path class="st1" d="M136.4,173.6c-.2.1-.1.3.1.5.2.2.6.3.7.2s0-.3-.1-.5-.4-.3-.7-.2Z"/>
    <path class="st1" d="M154.8,156.7c.2-.1.2-.4,0-.6s-.5-.3-.8-.1-.3.4,0,.6c.2.2.6.2.8.1Z"/>
    <path class="st1" d="M188.2,194.2c-.3-.5,0-.7,1-.4l-4.5-7.5c-.3-.1-.5.3-.3,1.2.5,1.6-.3,1.7-1,0,0-.2-.2-.5-.3-.7l-5.6,3.3c0,1.3.1,2,.6,2.7,1,1.5,1.6,4.9.8,4.9-.3,0-.7-.4-.9-.7s-1.2-1.3-2.2-2c-.8-.6-1.7-1.5-2.5-2.4l-8.5,5c-.9,2.2-3,5.7-3.5,5.7-.3,0-1-.7-1.6-1.5-.2-.2-.4-.5-.7-.7l-1.2.7c.2.1.4.2.6.3,1.7.9,3.3,1.9,3.5,2.1.4.7.9.4,2.1-1.2.5-.7,1.1-1.2,1.3-1.1.9.4,1.5,5.2,1.2,9.3-.4,4.8-.1,6.1,1.7,7.4,1,.8,1.9,2.1,2.8,4,0,.2,0,1.3-.2,2.6-.2,2-.1,2.5.9,3.8.9,1.2,1,1.5.4,2.2-.4.4-.4.7-.2,1.1l29.7-17.7-8.5-14.3-3.1-5.2c-.2,0-.4-.2-.6-.2-.5-.2-1-.4-1.2-.6ZM177.1,224.4c.9,3.1,1,4,.4,4.3s-.9,0-2.5-2.3c-1.7-2.6-1.8-2.9-1.4-4.7.2-1,.2-2.1,0-2.4s0-.6.3-.6c.9-.1,2,1.8,3.2,5.8ZM181.5,197.3c0,.5,0,1-.2,1.1-.4.2-1.9-2.1-1.8-2.8.1-.7,1.8.8,2,1.7Z"/>
    <path class="st1" d="M137.8,169.7c.5-.3.7-.7.6-1s-.8-.1-1.4.2-.9.8-.6,1c.2.2.9,0,1.4-.2Z"/>
    <path class="st1" d="M156.6,153.4c0-.2-.3-.5-.7-.7-.6-.2-.6-.1,0,.4.4.4.7.5.8.3Z"/>
    <polygon class="st1" points="142.5 183.8 141.9 183.4 141.9 184.1 142.5 183.8"/>
    <path class="st1" d="M224.2,236.7l-34.4,20.5-34.4,20.5-7.8-13.2-7.8-13.2,24-14.3c0-.1-.2-.2-.2-.3-.5-.8-1.6-1.8-2.5-2.3-1.7-.9-2.5-2-4.9-7-1-2.1-3.6-4.8-4.7-4.9-.6,0-.9-.5-1.4-1.9-1-2.7-1-2.8-1.8-1.9-.5.5-1.1.6-2.1.1-1.7-.8-2.1-.6-2.1.7,0,.5-.7,1.3-1.4,1.7s-1.4,1.1-1.5,1.6c-.1,1-1.9.5-3.6-1-.7-.6-1.8-1.1-2.5-1-1.1,0-1.1.3-3.1-3.5l-9.2,5.5-6-10-6-10,16-9.5c-.3-.3-.7-.5-1.2-.6l-1.3-.3,1.2-1.1c1.5-1.4,1.4-2.1,0-1.3-2.8,1.5-2.6,1.6-2.4-.2.2-1.3,0-1.5-.5-1.4-.5,0-.6.3-.4.7.4.7-.2,2.9-.8,2.9-.2,0-.7-.5-1.1-1.1s-.4-1.3,0-1.9c.5-.5.5-1,.1-1.3-.8-.7-.4-1.8,1-2.6s1.1-.4,1.4.5c.3.8,1,1.4,2.3,2l1.9.8.4-1.4c.3-.8.6-1.6.8-1.7s.2-.4,0-.6c-.6-.4-.6-2-.1-2.3s.6.2.9.7c.5.8.8.7,2.7-.4s2.1-1.4,1.8-2.3c-.2-.6,0-1.2.4-1.5s.6-.6.1-1c-.5-.4-.3-.7.7-1.3s1.1-.9.8-1.1c-.3-.2-1,.1-1.7.8-1,.9-1.3,1-1.9.4-.5-.4-.7-1.1-.4-2.2.4-1.7.3-2.2-.4-1.7s-.5.9-.4,1.8c0,.8-.2,1.6-.5,1.8s-.3.6.4,1.4c.7.9.9,1.6.8,2.9-.2,2-1.4,3-2.1,1.8s-1.2-1.3-1.6-.3c-.8,2-3.9-.8-3.4-3.1,0-.6.6-1.8,1.1-2.7.5-.8.8-1.7.6-2s.1-1.5.7-2.8c1.1-2.8,2.9-4.1,6-4.1,1.2,0,2.6-.3,3.3-.8s1.7-.5,2.5-.3c1.5.6,1.7.5,1.2-.4s-.1-1.8.7-1.5c.8.3,5.6-3,6.4-4.4.4-.6.9-1,2-1.1,2-.3,2.4-.6,1.1-.8-1.1-.3-1.1-.3-.8-2.1.2-1.4.4-1.8,1.1-1.7,1.1.1,2.8,2.8,2.7,4.2,0,.6,0,1,.3.9.7-.4.6-1.8-.4-3.5s-1.1-3.5-.1-1.9q.5.7.5-.3c0-.9.2-1.1,1.1-1.1.9,0,1,0,.4-.5-.5-.4-.4-.7.5-1.2s1.4-1.2,1.7-1.9c.4-.7,1.1-1.5,1.6-1.9s.9-.8.9-1.1.6-.8,1.5-1.1c.9-.4,1.5-.8,1.5-1.3,0-.4.4-.8,1.1-1,.4-.1,1.1-.4,1.7-.7l-5-8.3-49.6,29.6-16.9,10.1c4.3-1.9,4.9-1.9,5.3-1.2s1,1,1.8,1.4q1.3.7,2-.7c.6-1.4,1.4-1.8,1.9-.9s0,1.4-.2,2.6c-.3,1.3-.3,2.4.1,3.1,1.6,2.3,1.8,3,.8,3.2-.8.1-.8.3-.2,1.1,1,1.4.7,3-1,4.4-.7.7-1.5,1.8-1.7,2.5-.1.7-.4,1.3-.6,1.1-.6-.2-1.3,1.7-.9,2.4s.3.8,0,.9-.2.5,0,.9.3.9,0,1.2c-.5.7-3.8.7-4.6,0-.3-.3-1-.7-1.5-.9-.5-.2-1-.7-1.2-1.2-.2-.6-.4-.9-.6-.8s-1-.6-1.9-1.6c-1.2-1.3-1.8-1.7-2.8-1.6-1.7.1-3.5,1-3.9,1.7-.1.3-.5.4-.8.2-.3-.2-1-.3-1.6-.2-.9.1-.9,0-.1-.8.4-.5.7-1.1.6-1.3s0-.6.3-.7.4-.8.2-1.3,0-1.2.3-1.4.5-.7.5-1.2c-.1-.6.4-1.1,1.8-2s2-1.4,1.7-2.2c-.4-1.1.1-1.7.7-.9.2.4.3.4.2-.2,0-.4.3-1.5.9-2.4.2-.5.5-.8.8-1.1l-29.4,17.5,4.9,8.3s0,0,0,0c.4,0,1.6-.5,2.7-1.2,1.5-1,2.1-1.2,2.2-.7.1.4-.3.9-.9,1.1-1.7.7-1,3.6.8,3.3,1.2-.2,1.4.8.5,1.9-.5.6-.2.6,1-.1,1.4-.8,1.6-1.1,1.1-1.5-.4-.3-.4-.7,0-.9s.8,0,1,.4.6.5.8.2c.3-.4.2-.8-1.3-2.7-.6-.8-.7-1.2,0-1.7.4-.3.8-.4,1-.2s0,.7-.3.9c-.5.3-.3.4.9,1,.8.3,1.8.5,2.1.2s.8-.2,1.1,0c.3.3.5,0,.5-.6,0-.9,0-.9-.9-.5s-1.3.3-1.8,0c-.8-.4-.9-.6-.6-1.4.3-1.1.1-1.6-.5-1.2s-4.6.3-4.9-.2,1.2-.9,2.9-.7c.6.1,2-.3,3-.9,2-1.2,3.2-1.4,3.3-.7,0,.3.4.3.8,0s1.6-.4,2.6-.3c1,0,2.4,0,3-.3.6-.2,1.3,0,1.5.2s1.2.5,2.2.4c1,0,2,0,2.1.3.4.7-.5,1.7-1.5,1.6-.6,0-.9,0-.7.4s.5.3.9.4c.4,0,.9.2,1.1.6.5.9-.9,1.7-3.1,1.9-.9,0-2.1.4-2.7.7s-1.2.4-1.4,0-.1-.8.3-1.1.7-.9.7-1.5c0-.9,0-.9-.2-.2-.2,1.3-1,1.6-1.4.4-.3-.8-.5-.9-1.5-.3s-.9.8-.5,1.2c.3.3.5,1,.3,1.6-.3.9-.2,1,.8,1,.7,0,1.1.3,1.2.6,0,.4-.2.5-.7.4-.4-.1-1,.1-1.3.5-.4.4-.8.5-1,.1s-.4-.4-.5.1c0,.4-.4.8-.6.8-.3,0-.6.8-.7,1.6-.3,2.5,1,3.6,3.5,3,1.1-.2,2.3-.6,2.6-.8s1.2,0,2,.6c1.6,1.4,2.2,1.1.8-.6-.8-1-.9-1.3-.3-1.3,1,0,.7-1.2-.4-1.6-1.4-.5-2-3.2-.9-3.9s3.8-.6,3.9.1c.1,1.1,1.5.5,1.8-.7.2-1.1.3-1.1,2,0,1,.6,2,1,2.2.9.8-.5,3.3,1,3.6,2,.3.8.5,1,.9.7s1,0,1.4.3c1,.7.6,1.4-1.3,2.1-1.1.4-1.1.4-1.3-1.2s-.2-1.6-.9-.9c-.4.4-.7,1.1-.7,1.6,0,.7-.2.9-1.1.8s-1.2.1-1.8,1c-.8,1.4-.3,1.7.7.3.6-.9.8-1,1.4-.2.4.4.8.6.9.3.1-.2.3-.2.5,0s.5.3.8,0c1-1,1.5.4.6,1.4-.5.5-.9,1.2-.9,1.5,0,.8-.6,1-1,.2s-.5-.5-1,.4c-.4.7-.4,1.3.1,1.7.5.5.5.8,0,1.1-.8.5-.9,3.5-.2,4.2.3.3.2,1.6,0,2.9-.4,2-.4,2.6.3,3.1,1.1.8,2.4,3,1.8,3-.3,0-1.3-.4-2.2-1-1.2-.7-2-.9-2.4-.5-.3.3-1.2.9-1.8,1.4-2.2,1.5-2.3,2.7-.7,5.3s1.7,2.4,2.5,2.7c1.3.4,2.4-.7,2-2-.2-.6,0-1.1.5-1.4.7-.4.8-.3,1.8,1.8.9,2.1,1,2.2,1.6,1.5.8-1,1.7-.5,3.1,1.6,1.1,1.6,1.2,1.7,2.6.9,1.1-.6,1.5-1.2,1.7-2.4.2-1.7.7-2.3,1.1-1.5s.4.2.5,0c.1-.3.5-.5.9-.4s1.4-.3,2.3-.9c1.5-.9,1.8-.9,2-.1.2.6.5.8.8.6s.9-.1,1.4,0c.5.2,1.2.2,1.7,0,.8-.4,3.4.8,5.2,2.4.4.3,1.1.5,1.7.3,1.4-.3,3.9-.6,5.9-.4,1.5,0,1.7.2,2.4,1.8.4,1,.6,2.4.6,3.2-.1,1,.2,2.3.9,3.6,1.4,2.7,1.7,5.3.9,5.8s-1.6,3.3-1,3.7c.2.2.5,1.2.4,2.2,0,1.1.1,2.5.2,3.1,0,.6,0,1.5-.4,2-.3.5-.4,1.5-.2,2.4.3,1.1.1,1.6-.6,2s-.9.9-.8,1.4c0,.4-.1,1-.4,1.2-.5.3-.5.4.2.5.6.1.7.3.6,1.6-.1,1,0,1.8.5,2.2.4.4.6,1.2.5,2.2-.2,1.8.6,2.7,2.6,2.7,1.1,0,1.1,0,0,1.1-2,2-5,.8-7.1-3-.6-.9-1-2.1-1-2.5,0-.4-.7-2-1.5-3.7s-1.9-4-2.3-5.3c-.4-1.2-1.7-4-2.8-6l-2-3.8-2-.3c-1.6-.2-2.5-.8-4.1-2.3-1.2-1.1-2.5-2.2-3-2.4-1.4-.6-3.2-4.5-2.9-6.1.3-1.5-.3-2.8-1.7-3.9-.7-.5-.9-.5-1.1.1-.3,1.1-3.2.6-4.6-.7-.6-.5-1.3-.7-1.6-.5s-1.3.2-2.1,0c-.8-.2-1.6-.2-1.9,0-1.6,1.1-2.5,1.3-3.3.6-.4-.4-1.3-.7-1.9-.6-.7,0-1.3-.3-1.6-.8s-1-1.1-1.7-1.3c-.2,0-.3-.1-.6-.2l13.5,22.7,39.7,66.7,50.8-30.3,50.8-30.3-8.7-14.6-8.7-14.6ZM144.4,154.9c2.6-2.2,2.6-2.2,2.9-1.7s-.4,1.9-1.9,2.8c-1.8,1.2-2.3,2.5-1.5,3.8s.5,1.2.3,1.3c-.5.3-2.8.3-3,0-.5-.8,1.6-4.7,3.2-6.1ZM108.3,185.7c0-.2.4-.5.7-.5.3,0,1.4-.5,2.2-1,1.9-1.1,2.4-.6,1.2,1.3-.7,1.2-1,1.4-2.3,1.4-1.5,0-2-.3-1.8-1.2ZM68,199.2c-1.8.5-2.2.4-2.2-.2,0-1.2,2.6-1.9,3.2-.8s0,.7-.9,1ZM71.8,198.5c.1,0,.4,0,.7.2.2.2.3.4.1.5s-.5,0-.7-.2-.2-.5-.1-.5ZM71.8,202.9c-.2-.2-.9-.3-1.4-.2h-.9c0,0,.5-.7.5-.7.9-1.4,1.7-1.7,2.2-.8s.3,2.1-.4,1.7ZM103.8,233.9c-.2.1-.5,0-.6-.2s0-.6,0-.7.5,0,.6.2.1.5,0,.7ZM101.9,231.1c-.6-.1-1.5,0-2.1.3s-1.1.4-1.3.2c-.4-.7,1.3-1.5,3-1.4.9,0,1.7.3,1.8.5.3.5-.3.7-1.5.5ZM105.2,231.3c-.7-.1-.8-.2-.5-.9.2-.4.5-.9.7-1,.4-.3,1.8.2,2.1.7s-1.3,1.3-2.2,1.2Z"/>
    <path class="st1" d="M68.2,201.8c-.2-.3-.4-.4-.6-.2s-.3.4,0,.7.4.3.6.2.2-.4,0-.7Z"/>
    <path class="st1" d="M92.6,216.4c.4-1,.7-1.9.6-2-.3-.6-1.1.6-1.3,2.1l-.2,1.7.8-1.8Z"/>
    <path class="st1" d="M87.7,216.1c0,.2.3,1,.8,1.8.6.9.8,1.1.5.4-.8-2.3.2-3.9,1.3-2.2.6,1,.6,1,.4,0-.1-.6-.3-1.2-.4-1.4-.2-.4-2.5.9-2.6,1.5Z"/>
    <path class="st1" d="M78,197.2c.3-.2.3-.5,0-.6-.3-.2-.8-.1-1.2,0s-.5.6.1,1.2c.4.5.7.6.6.2,0-.3,0-.8.3-.9Z"/>
    <path class="st1" d="M85.5,214.9c-.3,1-.2,1,1,.3s1.3-.9.5-1.2c-1-.5-1.2-.4-1.6.9Z"/>
  </g>
  <g>
    <path class="st0" d="M281.3,273.5l-12.5-40.6-2.6-8.7v49.3h-8v-68h10.8l12.7,40.8,2.2,8v-48.8h8v68h-10.7Z"/>
    <path class="st0" d="M319.6,216.2v57.3h-9v-57.3h-12.8v-10.7h34.5v10.7h-12.8Z"/>
    <path class="st0" d="M363.3,273.5l-6.6-21.8c-.6-2.1-1.5-3.6-2.6-4.7s-2.4-1.6-3.9-1.6h-1.7v28.1h-8.8v-68h13.6c2.6,0,4.9.3,7,1,2.1.6,3.9,1.7,5.4,3.2,1.5,1.5,2.6,3.4,3.4,5.8.8,2.4,1.2,5.3,1.2,8.8s-.2,4.7-.7,6.7-1.2,3.6-2.1,5c-.9,1.4-2,2.5-3.2,3.4s-2.6,1.5-4.1,1.8c1.1.3,2.2,1.3,3.1,2.8,1,1.5,1.9,3.8,2.9,6.7l7.5,22.8h-10.3ZM361.1,225.5c0-3.3-.7-5.7-2.2-7.2-1.5-1.5-3.6-2.2-6.5-2.2h-3.9v19.2h3.6c1.4,0,2.6-.2,3.7-.6s2.1-1,2.8-1.9,1.4-1.9,1.8-3.1.6-2.6.6-4.2Z"/>
    <path class="st0" d="M381.9,273.5v-68h28.1v10.8h-19.2v16.9h18.3v10.6h-18.3v18.9h19.2v10.8h-28.1Z"/>
    <path class="st0" d="M452.7,227.2c0,3.5-.4,6.8-1.2,9.8-.8,3-2,5.6-3.6,7.8-1.6,2.2-3.6,3.9-6,5.1-2.4,1.2-5.1,1.8-8.3,1.8h-4.5v21.8h-8.8v-68h13.7c3,0,5.7.5,8,1.4s4.3,2.3,5.9,4.2c1.6,1.8,2.8,4.1,3.6,6.8s1.2,5.8,1.2,9.2ZM443.5,228c0-1.8-.2-3.4-.6-4.9s-1-2.7-1.8-3.8c-.8-1-1.8-1.8-3-2.4s-2.7-.8-4.3-.8h-4.6v24.9h4.9c1.5,0,2.9-.3,4-.9,1.2-.6,2.1-1.5,2.9-2.6.8-1.1,1.4-2.5,1.8-4.1.4-1.6.6-3.4.6-5.4Z"/>
    <path class="st0" d="M483.8,273.5l-6.6-21.8c-.6-2.1-1.5-3.6-2.6-4.7s-2.4-1.6-3.9-1.6h-1.7v28.1h-8.8v-68h13.6c2.6,0,4.9.3,7,1,2.1.6,3.9,1.7,5.4,3.2,1.5,1.5,2.6,3.4,3.4,5.8.8,2.4,1.2,5.3,1.2,8.8s-.2,4.7-.7,6.7-1.2,3.6-2.1,5c-.9,1.4-2,2.5-3.2,3.4s-2.6,1.5-4.1,1.8c1.1.3,2.2,1.3,3.1,2.8,1,1.5,1.9,3.8,2.9,6.7l7.5,22.8h-10.3ZM481.7,225.5c0-3.3-.7-5.7-2.2-7.2-1.5-1.5-3.6-2.2-6.5-2.2h-3.9v19.2h3.6c1.4,0,2.6-.2,3.7-.6s2.1-1,2.8-1.9,1.4-1.9,1.8-3.1.6-2.6.6-4.2Z"/>
    <path class="st0" d="M502.5,273.5v-68h28.1v10.8h-19.2v16.9h18.3v10.6h-18.3v18.9h19.2v10.8h-28.1Z"/>
    <path class="st0" d="M562.5,273.5l-12.5-40.6-2.6-8.7v49.3h-8v-68h10.8l12.7,40.8,2.2,8v-48.8h8v68h-10.7Z"/>
    <path class="st0" d="M582.8,273.5v-68h28.1v10.8h-19.2v16.9h18.3v10.6h-18.3v18.9h19.2v10.8h-28.1Z"/>
    <path class="st0" d="M653.5,248.5c0,4.3-.4,8.1-1.2,11.4s-1.9,6-3.4,8.2-3.3,3.8-5.4,4.9-4.5,1.7-7.2,1.7-5.6-.6-7.7-1.7-3.9-2.7-5.2-4.8-2.3-4.6-2.9-7.6-.9-6.3-.9-10v-45.1h8.8v44.3c0,2.3.1,4.3.4,6.1s.7,3.3,1.4,4.5,1.5,2.2,2.6,2.8,2.3.9,3.9.9,2.7-.3,3.7-.8,1.8-1.4,2.5-2.6,1.2-2.7,1.5-4.6.5-4.1.5-6.8v-43.8h8.8v43Z"/>
    <path class="st0" d="M684.7,273.5l-6.6-21.8c-.6-2.1-1.5-3.6-2.6-4.7s-2.4-1.6-3.9-1.6h-1.7v28.1h-8.8v-68h13.6c2.6,0,4.9.3,7,1s3.9,1.7,5.4,3.2,2.6,3.4,3.4,5.8,1.2,5.3,1.2,8.8-.2,4.7-.7,6.7-1.2,3.6-2.1,5-2,2.5-3.2,3.4-2.6,1.5-4.1,1.8c1.1.3,2.2,1.3,3.1,2.8s1.9,3.8,2.9,6.7l7.5,22.8h-10.3ZM682.5,225.5c0-3.3-.7-5.7-2.2-7.2s-3.6-2.2-6.5-2.2h-3.9v19.2h3.6c1.4,0,2.6-.2,3.7-.6s2.1-1,2.8-1.9,1.4-1.9,1.8-3.1.6-2.6.6-4.2Z"/>
  </g>
</svg>