<?xml version="1.0" encoding="UTF-8"?>
<svg id="Capa_1" xmlns="http://www.w3.org/2000/svg" version="1.1" viewBox="0 0 763.9 455">
  <!-- Generator: Adobe Illustrator 29.0.0, SVG Export Plug-In . SVG Version: 2.1.0 Build 186)  -->
  <defs>
    <style>
      .st0 {
        stroke: #05090c;
        stroke-miterlimit: 10;
        stroke-width: 6px;
      }

      .st0, .st1 {
        fill: #05090c;
      }

      .st2 {
        fill: #fff;
      }
    </style>
  </defs>
  <rect class="st2" x="-.9" y="0" width="764.7" height="455"/>
  <g>
    <path class="st1" d="M151.9,180.5c0,.2,0,.4-.3.6l1.9-1.1s0,0,0,0c-.6-.5-1.6-.2-1.6.5Z"/>
    <path class="st1" d="M161.4,213.7c0,.5.6,1.5.9,1.3s.2-.5,0-.9c-.1-.7-.9-1.1-1-.4Z"/>
    <path class="st1" d="M138.9,176.2c-.2,0-.1.3.1.5.2.1.5.3.6.2s0-.3-.1-.5-.4-.3-.6-.2Z"/>
    <path class="st1" d="M155.6,160.9c.2,0,.2-.4,0-.6s-.5-.3-.8,0-.3.4,0,.6c.2.1.6.2.8,0Z"/>
    <path class="st1" d="M185.9,194.9c-.3-.5,0-.6.9-.4l-4.1-6.8c-.3-.1-.5.3-.2,1.1.4,1.5-.3,1.5-.9,0,0-.2-.2-.4-.3-.6l-5.1,3c0,1.2.1,1.8.5,2.4.9,1.3,1.4,4.5.8,4.4-.3,0-.6-.3-.8-.6s-1.1-1.1-2-1.8c-.7-.5-1.6-1.4-2.3-2.1l-7.7,4.6c-.8,2-2.8,5.2-3.2,5.1-.2,0-.9-.6-1.5-1.3-.2-.2-.4-.4-.6-.7l-1.1.7c.2,0,.3.2.5.3,1.6.8,3,1.7,3.1,1.9.4.6.8.4,1.9-1.1.4-.6,1-1.1,1.2-1,.9.3,1.4,4.8,1.1,8.4-.3,4.4-.1,5.5,1.5,6.7.9.7,1.7,1.9,2.6,3.6,0,.1,0,1.2-.2,2.4-.2,1.8,0,2.3.8,3.4.8,1.1.9,1.4.4,2-.3.4-.4.6-.2,1l27-16.1-7.7-13-2.8-4.7c-.2,0-.4-.2-.5-.2-.5-.2-.9-.4-1.1-.6ZM175.9,222.3c.8,2.8.9,3.6.4,3.9s-.8,0-2.3-2.1c-1.5-2.3-1.6-2.6-1.3-4.3.2-.9.2-1.9,0-2.2s0-.5.2-.6c.9-.1,1.8,1.7,2.9,5.3ZM179.9,197.7c0,.4,0,.9-.2,1-.4.2-1.7-1.9-1.6-2.5.1-.6,1.6.7,1.8,1.6Z"/>
    <path class="st1" d="M140.3,172.7c.4-.3.7-.7.5-.9s-.7-.1-1.3.2-.8.7-.5.9c.2.1.8,0,1.3-.2Z"/>
    <path class="st1" d="M157.3,157.9c0-.2-.3-.4-.7-.6-.5-.2-.6-.1,0,.3.3.3.7.4.7.3Z"/>
    <polygon class="st1" points="144.5 185.4 144 185.1 144 185.7 144.5 185.4"/>
    <path class="st1" d="M218.6,233.4l-31.2,18.6-31.2,18.6-7.1-11.9-7.1-11.9,21.7-13c0,0-.1-.2-.2-.3-.4-.7-1.4-1.7-2.2-2.1-1.5-.8-2.2-1.8-4.4-6.4-.9-1.9-3.3-4.4-4.3-4.4-.5,0-.8-.5-1.2-1.7-.9-2.4-1-2.5-1.6-1.7-.5.5-1,.5-1.9.1-1.5-.7-1.9-.6-1.9.6,0,.5-.6,1.2-1.2,1.6s-1.3,1-1.3,1.4c-.1.9-1.7.4-3.3-.9-.6-.5-1.6-1-2.3-.9-1,0-1,.3-2.8-3.2l-8.4,5-5.4-9.1-5.4-9.1,14.5-8.6c-.3-.2-.6-.4-1.1-.5l-1.2-.2,1-1c1.4-1.3,1.3-1.9,0-1.2-2.5,1.4-2.4,1.4-2.2-.2.1-1.2,0-1.4-.5-1.3-.4,0-.5.3-.3.6.4.6-.2,2.6-.8,2.6-.2,0-.6-.5-1-1s-.4-1.2,0-1.7c.5-.5.5-.9.1-1.2-.7-.6-.3-1.6.9-2.3s1-.4,1.3.4c.3.7.9,1.3,2.1,1.8l1.7.8.3-1.3c.2-.7.5-1.4.8-1.5s.1-.4,0-.5c-.5-.4-.6-1.9-.1-2.1s.5.2.8.6c.4.7.7.7,2.4-.3s1.9-1.3,1.6-2.1c-.2-.5,0-1.1.4-1.3s.5-.6.1-.9c-.5-.4-.3-.6.7-1.2s1-.8.7-1c-.3-.2-.9.1-1.6.7-.9.8-1.2.9-1.7.4-.5-.4-.6-1-.4-2,.4-1.6.3-2-.4-1.6s-.4.9-.4,1.6c0,.7-.2,1.5-.4,1.6s-.3.6.4,1.3c.7.8.8,1.4.7,2.6-.2,1.8-1.3,2.7-1.9,1.6s-1.1-1.2-1.5-.2c-.7,1.8-3.5-.7-3.1-2.8,0-.5.6-1.6,1-2.4.4-.8.7-1.6.6-1.8s.1-1.3.6-2.5c1-2.5,2.6-3.7,5.4-3.7,1.1,0,2.4-.3,3-.7s1.6-.5,2.2-.2c1.4.5,1.6.4,1.1-.3s-.1-1.6.7-1.3c.7.3,5.1-2.7,5.8-4,.3-.6.8-.9,1.8-1,1.8-.2,2.2-.5,1-.8-1-.2-1-.3-.7-1.9.2-1.3.4-1.7,1-1.5,1,.1,2.6,2.5,2.5,3.8,0,.6,0,.9.2.8.7-.4.5-1.7-.4-3.1s-1-3.1-.1-1.7q.4.7.5-.3c0-.8.2-1,1-1,.8,0,.9,0,.4-.5-.4-.3-.3-.6.4-1.1s1.2-1.1,1.5-1.7c.3-.6,1-1.4,1.5-1.7s.9-.7.8-1,.6-.7,1.4-1c.9-.3,1.4-.8,1.3-1.2,0-.4.3-.7,1-.9.4-.1,1-.3,1.5-.6l-4.5-7.6-45,26.8-15.3,9.1c3.9-1.7,4.4-1.8,4.8-1.1s.9.9,1.6,1.3q1.2.6,1.8-.7c.6-1.3,1.3-1.6,1.8-.8s0,1.3-.2,2.3c-.3,1.2-.2,2.2.1,2.8,1.5,2.1,1.6,2.8.7,2.9-.7.1-.7.3-.1,1,.9,1.3.6,2.7-.9,4-.7.6-1.3,1.6-1.5,2.3,0,.7-.3,1.1-.5,1-.5-.2-1.2,1.5-.8,2.2s.2.7,0,.8-.2.5,0,.8.2.8,0,1.1c-.5.7-3.4.7-4.2,0-.3-.3-.9-.7-1.4-.8-.4-.2-.9-.7-1.1-1.1-.2-.5-.4-.8-.6-.7s-.9-.6-1.7-1.4c-1.1-1.2-1.7-1.5-2.5-1.5-1.5.1-3.2.9-3.5,1.6-.1.3-.4.4-.7.2-.3-.2-.9-.2-1.4-.2-.8.1-.8,0-.1-.7.4-.5.6-1,.5-1.2s0-.5.3-.7.4-.7.2-1.2,0-1.1.3-1.3.5-.7.4-1.1c-.1-.5.3-1,1.7-1.8s1.8-1.2,1.5-2c-.3-1,.1-1.5.6-.8.2.4.3.3.2-.2,0-.3.3-1.4.8-2.2.2-.4.4-.7.7-1l-26.6,15.9,4.5,7.5s0,0,0,0c.3,0,1.4-.5,2.5-1.1,1.4-.9,1.9-1.1,2-.6.1.4-.2.8-.8,1-1.6.7-.9,3.3.7,3,1-.2,1.3.7.5,1.7-.5.6-.2.5.9-.1,1.3-.7,1.5-1,1-1.4-.3-.3-.4-.6,0-.8s.7,0,.9.3.5.5.7.2c.3-.4.2-.7-1.2-2.4-.6-.8-.6-1.1,0-1.5.3-.3.7-.4.9-.1s0,.6-.3.8c-.5.3-.3.4.8.9.8.3,1.6.4,1.9.2s.7-.2,1,0c.2.2.4,0,.4-.5,0-.8,0-.8-.8-.4s-1.2.3-1.6,0c-.7-.4-.8-.5-.6-1.3.3-1,.1-1.4-.5-1.1s-4.1.3-4.4-.2,1.1-.8,2.6-.6c.6,0,1.8-.3,2.7-.8,1.8-1.1,2.9-1.3,3-.6,0,.3.3.3.7,0s1.5-.4,2.4-.3c.9,0,2.1,0,2.7-.2.6-.2,1.1,0,1.3.2s1.1.5,2,.4c.9,0,1.8,0,1.9.3.4.6-.4,1.5-1.4,1.5-.5,0-.8,0-.6.3s.5.3.9.3c.3,0,.8.2,1,.6.5.8-.8,1.6-2.9,1.7-.8,0-1.9.3-2.5.6s-1.1.4-1.3,0,0-.8.3-1,.6-.8.6-1.4c0-.8,0-.8-.2-.2-.2,1.2-.9,1.4-1.2.4-.3-.8-.5-.8-1.3-.3s-.9.7-.4,1.1c.3.3.5.9.3,1.4-.2.9-.2.9.7.9.6,0,1,.3,1.1.6,0,.4-.2.5-.6.3-.4-.1-.9.1-1.2.5-.4.4-.7.5-.9.1s-.3-.3-.4.1c0,.4-.3.7-.6.7-.3,0-.6.7-.7,1.5-.3,2.2.9,3.2,3.1,2.7,1-.2,2.1-.6,2.4-.8s1.1,0,1.8.6c1.5,1.3,2,1,.8-.5-.8-.9-.8-1.2-.3-1.2.9,0,.7-1.1-.4-1.5-1.3-.5-1.9-2.9-.8-3.5s3.5-.5,3.5,0c0,1,1.4.4,1.6-.7.2-1,.3-1,1.8,0,.9.6,1.8.9,2,.8.7-.4,3,.9,3.3,1.8.2.7.4.9.8.7s.9,0,1.3.3c.9.7.5,1.3-1.2,1.9-1,.4-1,.3-1.2-1s-.2-1.4-.8-.8c-.3.4-.6,1-.6,1.5,0,.7-.2.8-1,.7s-1.1,0-1.6.9c-.7,1.3-.2,1.6.6.3.5-.8.7-.9,1.3-.2.4.4.7.5.8.3,0-.2.3-.2.4,0s.5.3.7,0c.9-.9,1.4.4.5,1.2-.5.5-.8,1.1-.9,1.3,0,.7-.5.9-.9.2s-.4-.4-.9.4c-.4.7-.4,1.2,0,1.6.4.4.4.7,0,1-.7.4-.8,3.1-.2,3.8.2.2.2,1.4,0,2.6-.4,1.9-.3,2.4.3,2.8,1,.7,2.2,2.7,1.7,2.7-.2,0-1.1-.4-2-.9-1-.6-1.8-.8-2.2-.5-.3.3-1.1.8-1.6,1.2-2,1.4-2.1,2.4-.7,4.8s1.5,2.2,2.2,2.5c1.2.4,2.2-.6,1.8-1.8-.2-.5,0-1,.4-1.3.7-.4.8-.3,1.6,1.6.8,1.9.9,2,1.4,1.4.7-.9,1.5-.5,2.8,1.5,1,1.5,1.1,1.5,2.4.8,1-.5,1.4-1.1,1.6-2.1.2-1.5.6-2.1,1-1.3s.3.2.4,0c.1-.3.5-.4.8-.4s1.3-.3,2.1-.8c1.4-.8,1.6-.8,1.8-.1.2.5.4.7.7.6s.8-.1,1.2,0c.4.2,1.1.2,1.5,0,.7-.4,3.1.7,4.7,2.2.3.3,1,.4,1.5.3,1.2-.3,3.5-.5,5.4-.4,1.4,0,1.6.2,2.2,1.6.3.9.6,2.2.5,2.9,0,.9.2,2.1.8,3.3,1.2,2.5,1.6,4.8.8,5.3s-1.5,3-.9,3.3c.2.1.4,1.1.4,2,0,1,0,2.2.2,2.8,0,.6,0,1.4-.3,1.8-.3.4-.3,1.4-.1,2.2.2,1,.1,1.5-.5,1.8s-.8.8-.7,1.2c0,.4,0,.9-.4,1.1-.5.3-.4.4.2.4.6,0,.7.3.5,1.5,0,.9,0,1.6.5,2,.4.4.6,1.1.5,2-.2,1.6.5,2.4,2.4,2.5,1,0,1,0,0,1-1.9,1.8-4.5.7-6.4-2.7-.5-.9-.9-1.9-.9-2.2,0-.3-.6-1.8-1.4-3.4s-1.7-3.7-2.1-4.8c-.4-1.1-1.5-3.6-2.5-5.5l-1.8-3.4-1.8-.2c-1.4-.2-2.3-.7-3.7-2.1-1-1-2.3-2-2.7-2.2-1.3-.6-2.9-4.1-2.7-5.5.2-1.4-.3-2.6-1.6-3.5-.6-.5-.9-.5-1,.1-.2,1-2.9.5-4.1-.6-.5-.5-1.2-.6-1.5-.4s-1.2.2-1.9,0c-.7-.2-1.5-.2-1.7,0-1.5,1-2.3,1.2-3,.5-.4-.4-1.2-.6-1.7-.6-.6,0-1.2-.3-1.5-.7s-.9-1-1.5-1.2c-.1,0-.3-.1-.5-.2l12.3,20.6,36,60.5,46.1-27.4,46.1-27.4-7.9-13.2-7.9-13.2ZM146.2,159.3c2.4-2,2.4-2,2.6-1.6s-.4,1.7-1.7,2.6c-1.6,1.1-2.1,2.2-1.4,3.4s.5,1.1.3,1.2c-.5.3-2.5.3-2.7,0-.4-.7,1.4-4.3,2.9-5.6ZM113.5,187.2c0-.2.3-.4.7-.4.3,0,1.2-.5,2-.9,1.7-1,2.2-.5,1.1,1.2-.7,1.1-.9,1.3-2.1,1.3-1.4,0-1.8-.3-1.7-1.1ZM77,199.4c-1.6.4-2,.4-2-.2,0-1.1,2.3-1.7,2.9-.7s0,.7-.9.9ZM80.4,198.8c0,0,.4,0,.6.2.2.1.3.4.1.5s-.5,0-.6-.2-.2-.4-.1-.5ZM80.4,202.8c-.2-.1-.8-.2-1.3-.2h-.8c0,0,.5-.6.5-.6.8-1.3,1.5-1.5,2-.7s.3,1.9-.4,1.5ZM109.4,230.9c-.2,0-.4,0-.6-.2s0-.5,0-.6.4,0,.6.2.1.5,0,.6ZM107.7,228.4c-.5-.1-1.4,0-1.9.3s-1,.3-1.2.1c-.4-.6,1.2-1.4,2.8-1.2.8,0,1.5.3,1.6.4.3.5-.2.6-1.3.4ZM110.7,228.5c-.6-.1-.7-.2-.5-.8.1-.4.4-.8.6-.9.4-.2,1.6.2,1.9.6s-1.1,1.2-2,1.1Z"/>
    <path class="st1" d="M77.1,201.8c-.1-.2-.4-.3-.6-.2s-.2.4,0,.6.4.3.6.2.2-.4,0-.6Z"/>
    <path class="st1" d="M99.3,215c.4-.9.6-1.7.6-1.8-.3-.5-1,.6-1.1,1.9l-.2,1.5.7-1.6Z"/>
    <path class="st1" d="M94.8,214.7c0,.2.3.9.7,1.6.5.8.7,1,.5.3-.7-2.1.2-3.6,1.2-2,.5.9.6.9.4,0-.1-.5-.3-1.1-.4-1.3-.2-.4-2.3.8-2.4,1.4Z"/>
    <path class="st1" d="M86,197.7c.3-.2.3-.4,0-.6-.2-.2-.7-.1-1.1,0s-.4.5.1,1.1c.4.4.6.6.6.2,0-.3,0-.7.3-.8Z"/>
    <path class="st1" d="M92.8,213.6c-.3.9-.2.9.9.3s1.2-.8.5-1.1c-.9-.4-1.1-.3-1.4.9Z"/>
  </g>
  <g>
    <path class="st0" d="M265.7,267.2l-12.5-40.6-2.6-8.7v49.3h-8v-68h10.8l12.7,40.8,2.2,8v-48.8h8v68h-10.7Z"/>
    <path class="st0" d="M304.1,209.9v57.3h-9v-57.3h-12.8v-10.7h34.5v10.7h-12.8Z"/>
    <path class="st0" d="M347.8,267.2l-6.6-21.8c-.6-2.1-1.5-3.6-2.6-4.7s-2.4-1.6-3.9-1.6h-1.7v28.1h-8.8v-68h13.6c2.6,0,4.9.3,7,1,2.1.6,3.9,1.7,5.4,3.2,1.5,1.5,2.6,3.4,3.4,5.8.8,2.4,1.2,5.3,1.2,8.8s-.2,4.7-.7,6.7-1.2,3.6-2.1,5c-.9,1.4-2,2.5-3.2,3.4s-2.6,1.5-4.1,1.8c1.1.3,2.2,1.3,3.1,2.8,1,1.5,1.9,3.8,2.9,6.7l7.5,22.8h-10.3ZM345.6,219.2c0-3.3-.7-5.7-2.2-7.2-1.5-1.5-3.6-2.2-6.5-2.2h-3.9v19.2h3.6c1.4,0,2.6-.2,3.7-.6s2.1-1,2.8-1.9,1.4-1.9,1.8-3.1.6-2.6.6-4.2Z"/>
    <path class="st0" d="M366.4,267.2v-68h28.1v10.8h-19.2v16.9h18.3v10.6h-18.3v18.9h19.2v10.8h-28.1Z"/>
    <path class="st0" d="M437.2,220.8c0,3.5-.4,6.8-1.2,9.8-.8,3-2,5.6-3.6,7.8-1.6,2.2-3.6,3.9-6,5.1-2.4,1.2-5.1,1.8-8.3,1.8h-4.5v21.8h-8.8v-68h13.7c3,0,5.7.5,8,1.4s4.3,2.3,5.9,4.2c1.6,1.8,2.8,4.1,3.6,6.8s1.2,5.8,1.2,9.2ZM428,221.7c0-1.8-.2-3.4-.6-4.9s-1-2.7-1.8-3.8c-.8-1-1.8-1.8-3-2.4s-2.7-.8-4.3-.8h-4.6v24.9h4.9c1.5,0,2.9-.3,4-.9,1.2-.6,2.1-1.5,2.9-2.6.8-1.1,1.4-2.5,1.8-4.1.4-1.6.6-3.4.6-5.4Z"/>
    <path class="st0" d="M468.3,267.2l-6.6-21.8c-.6-2.1-1.5-3.6-2.6-4.7s-2.4-1.6-3.9-1.6h-1.7v28.1h-8.8v-68h13.6c2.6,0,4.9.3,7,1,2.1.6,3.9,1.7,5.4,3.2,1.5,1.5,2.6,3.4,3.4,5.8.8,2.4,1.2,5.3,1.2,8.8s-.2,4.7-.7,6.7-1.2,3.6-2.1,5c-.9,1.4-2,2.5-3.2,3.4s-2.6,1.5-4.1,1.8c1.1.3,2.2,1.3,3.1,2.8,1,1.5,1.9,3.8,2.9,6.7l7.5,22.8h-10.3ZM466.1,219.2c0-3.3-.7-5.7-2.2-7.2-1.5-1.5-3.6-2.2-6.5-2.2h-3.9v19.2h3.6c1.4,0,2.6-.2,3.7-.6s2.1-1,2.8-1.9,1.4-1.9,1.8-3.1.6-2.6.6-4.2Z"/>
    <path class="st0" d="M486.9,267.2v-68h28.1v10.8h-19.2v16.9h18.3v10.6h-18.3v18.9h19.2v10.8h-28.1Z"/>
    <path class="st0" d="M546.9,267.2l-12.5-40.6-2.6-8.7v49.3h-8v-68h10.8l12.7,40.8,2.2,8v-48.8h8v68h-10.7Z"/>
    <path class="st0" d="M567.2,267.2v-68h28.1v10.8h-19.2v16.9h18.3v10.6h-18.3v18.9h19.2v10.8h-28.1Z"/>
    <path class="st0" d="M637.9,242.1c0,4.3-.4,8.1-1.2,11.4s-1.9,6-3.4,8.2-3.3,3.8-5.4,4.9-4.5,1.7-7.2,1.7-5.6-.6-7.7-1.7-3.9-2.7-5.2-4.8-2.3-4.6-2.9-7.6-.9-6.3-.9-10v-45.1h8.8v44.3c0,2.3.1,4.3.4,6.1s.7,3.3,1.4,4.5,1.5,2.2,2.6,2.8,2.3.9,3.9.9,2.7-.3,3.7-.8,1.8-1.4,2.5-2.6,1.2-2.7,1.5-4.6.5-4.1.5-6.8v-43.8h8.8v43Z"/>
    <path class="st0" d="M669.1,267.2l-6.6-21.8c-.6-2.1-1.5-3.6-2.6-4.7s-2.4-1.6-3.9-1.6h-1.7v28.1h-8.8v-68h13.6c2.6,0,4.9.3,7,1s3.9,1.7,5.4,3.2,2.6,3.4,3.4,5.8,1.2,5.3,1.2,8.8-.2,4.7-.7,6.7-1.2,3.6-2.1,5-2,2.5-3.2,3.4-2.6,1.5-4.1,1.8c1.1.3,2.2,1.3,3.1,2.8s1.9,3.8,2.9,6.7l7.5,22.8h-10.3ZM667,219.2c0-3.3-.7-5.7-2.2-7.2s-3.6-2.2-6.5-2.2h-3.9v19.2h3.6c1.4,0,2.6-.2,3.7-.6s2.1-1,2.8-1.9,1.4-1.9,1.8-3.1.6-2.6.6-4.2Z"/>
  </g>
</svg>